<?xml version="1.0" encoding="utf-8"?>
<!-- Generator: Adobe Illustrator 15.0.2, SVG Export Plug-In . SVG Version: 6.00 Build 0)  -->
<!DOCTYPE svg PUBLIC "-//W3C//DTD SVG 1.1//EN" "http://www.w3.org/Graphics/SVG/1.1/DTD/svg11.dtd">
<svg version="1.1" id="Layer_1" xmlns="http://www.w3.org/2000/svg" xmlns:xlink="http://www.w3.org/1999/xlink" x="0px" y="0px"
	 width="1536px" height="1536px" viewBox="256 256 1536 1536" enable-background="new 256 256 1536 1536" xml:space="preserve">
<path d="M1472,1088V960c0-17.333-6.333-32.333-19-45s-27.667-19-45-19h-256V640c0-17.333-6.333-32.333-19-45s-27.667-19-45-19H960
	c-17.333,0-32.333,6.333-45,19s-19,27.667-19,45v256H640c-17.333,0-32.333,6.333-45,19s-19,27.667-19,45v128
	c0,17.333,6.333,32.333,19,45s27.667,19,45,19h256v256c0,17.333,6.333,32.333,19,45s27.667,19,45,19h128
	c17.333,0,32.333-6.333,45-19s19-27.667,19-45v-256h256c17.333,0,32.333-6.333,45-19S1472,1105.333,1472,1088z M1792,1024
	c0,139.333-34.334,267.833-103,385.5c-68.667,117.667-161.833,210.833-279.5,279.5s-246.167,103-385.5,103
	s-267.833-34.333-385.5-103S427.667,1527.167,359,1409.5c-68.667-117.667-103-246.167-103-385.5s34.333-267.833,103-385.5
	C427.667,520.833,520.833,427.667,638.5,359c117.667-68.667,246.167-103,385.5-103s267.833,34.333,385.5,103
	c117.667,68.667,210.833,161.833,279.5,279.5C1757.666,756.167,1792,884.667,1792,1024z"/>
</svg>
