<?xml version="1.0" encoding="utf-8"?>
<!-- Generator: Adobe Illustrator 15.0.2, SVG Export Plug-In . SVG Version: 6.00 Build 0)  -->
<!DOCTYPE svg PUBLIC "-//W3C//DTD SVG 1.1//EN" "http://www.w3.org/Graphics/SVG/1.1/DTD/svg11.dtd">
<svg version="1.1" id="Layer_1" xmlns="http://www.w3.org/2000/svg" xmlns:xlink="http://www.w3.org/1999/xlink" x="0px" y="0px"
	 width="1032px" height="762px" viewBox="0 0 1032 762" enable-background="new 0 0 1032 762" xml:space="preserve">
<g>
	<path d="M923,19C910.332,6.334,895.332,0,878,0c-17.334,0-32.334,6.334-45,19L425,426L199,200c-12.668-12.666-27.668-19-45-19
		c-17.334,0-32.334,6.334-45,19l-91,90C6,302,0,317.334,0,336c0,18,6,33,18,45l362,362c12.666,12.668,27.666,19,45,19
		c18,0,33.332-6.332,46-19l543-543c12-12,18-27,18-45c0-18.666-6-34-18-46L923,19z"/>
</g>
</svg>
