<?xml version="1.0" encoding="utf-8"?>
<!-- Generator: Adobe Illustrator 15.0.2, SVG Export Plug-In . SVG Version: 6.00 Build 0)  -->
<!DOCTYPE svg PUBLIC "-//W3C//DTD SVG 1.1//EN" "http://www.w3.org/Graphics/SVG/1.1/DTD/svg11.dtd">
<svg version="1.1" id="Layer_1" xmlns="http://www.w3.org/2000/svg" xmlns:xlink="http://www.w3.org/1999/xlink" x="0px" y="0px"
	 width="63px" height="60px" viewBox="0 0 63 60" enable-background="new 0 0 63 60" xml:space="preserve">
<g>
	<g>
		<path fill="#020202" d="M32.026,0.204c-10.318,0-18.682,8.518-18.682,19.025c0,11.905,10.675,16.036,10.675,27.153l16.014-2.878
			c0-8.967,10.675-12.37,10.675-24.275C50.708,8.722,42.344,0.204,32.026,0.204z M38.437,45.077l-13.344,2.718
			c-0.723,0.147-1.191,0.863-1.047,1.6c0.127,0.646,0.684,1.093,1.307,1.093c0.087,0,0.175-0.009,0.263-0.026l13.344-2.719
			c0.723-0.146,1.191-0.862,1.047-1.599S39.158,44.931,38.437,45.077z M38.437,49.154l-13.344,2.718
			c-0.723,0.147-1.191,0.863-1.047,1.6c0.127,0.646,0.684,1.093,1.307,1.093c0.087,0,0.175-0.009,0.263-0.026l13.344-2.719
			c0.723-0.146,1.191-0.863,1.047-1.599C39.862,49.484,39.158,49.007,38.437,49.154z M32.026,60c2.21,0,4.003-1.527,4.003-5.436
			l-8.006,1.358C28.023,58.174,29.816,60,32.026,60z M58.854,0l-8.191,6.091c0.3,0.44,0.572,0.897,0.842,1.356l9.148-4.313L58.854,0
			z M5.196,0.008L3.397,3.14l9.146,4.313c0.27-0.46,0.544-0.916,0.844-1.356L5.196,0.008z M3.416,32.597L5.18,35.75l7.174-5.146
			c-0.291-0.535-0.566-1.093-0.83-1.66L3.416,32.597z M9.448,17.088l-9.426-1.032L0,19.687l9.362-0.859
			C9.371,18.24,9.395,17.661,9.448,17.088z M53.557,18.739L63,19.601l-0.043-3.631l-9.346,1.029
			C53.614,17.586,53.6,18.165,53.557,18.739z M51.589,30.534l7.28,5.222l1.765-3.153l-8.164-3.678
			C52.191,29.485,51.893,30.015,51.589,30.534z"/>
	</g>
</g>
</svg>
