<?xml version="1.0" encoding="utf-8"?>
<!-- Generator: Adobe Illustrator 15.0.2, SVG Export Plug-In . SVG Version: 6.00 Build 0)  -->
<!DOCTYPE svg PUBLIC "-//W3C//DTD SVG 1.1//EN" "http://www.w3.org/Graphics/SVG/1.1/DTD/svg11.dtd">
<svg version="1.1" id="Layer_1" xmlns="http://www.w3.org/2000/svg" xmlns:xlink="http://www.w3.org/1999/xlink" x="0px" y="0px"
	 width="1792px" height="1408px" viewBox="0 128 1792 1408" enable-background="new 0 128 1792 1408" xml:space="preserve">
<path d="M512,1248v192c0,26.667-9.334,49.334-28,68c-18.667,18.667-41.334,28-68,28H96c-26.667,0-49.334-9.333-68-28
	c-18.667-18.666-28-41.333-28-68v-192c0-26.666,9.333-49.333,28-68c18.666-18.666,41.333-28,68-28h320c26.666,0,49.333,9.334,68,28
	C502.666,1198.667,512,1221.334,512,1248z M512,736v192c0,26.667-9.334,49.334-28,68c-18.667,18.667-41.334,28-68,28H96
	c-26.667,0-49.334-9.333-68-28C9.333,977.334,0,954.667,0,928V736c0-26.666,9.333-49.333,28-68c18.666-18.666,41.333-28,68-28h320
	c26.666,0,49.333,9.334,68,28C502.666,686.667,512,709.334,512,736z M1792,1248v192c0,26.667-9.334,49.334-28,68
	c-18.667,18.667-41.334,28-68,28H736c-26.667,0-49.334-9.333-68-28c-18.667-18.666-28-41.333-28-68v-192
	c0-26.666,9.333-49.333,28-68c18.666-18.666,41.333-28,68-28h960c26.666,0,49.333,9.334,68,28
	C1782.666,1198.667,1792,1221.334,1792,1248z M512,224v192c0,26.667-9.334,49.334-28,68c-18.667,18.667-41.334,28-68,28H96
	c-26.667,0-49.334-9.333-68-28C9.333,465.334,0,442.667,0,416V224c0-26.666,9.333-49.333,28-68c18.666-18.666,41.333-28,68-28h320
	c26.666,0,49.333,9.334,68,28C502.666,174.667,512,197.334,512,224z M1792,736v192c0,26.667-9.334,49.334-28,68
	c-18.667,18.667-41.334,28-68,28H736c-26.667,0-49.334-9.333-68-28c-18.667-18.666-28-41.333-28-68V736c0-26.666,9.333-49.333,28-68
	c18.666-18.666,41.333-28,68-28h960c26.666,0,49.333,9.334,68,28C1782.666,686.667,1792,709.334,1792,736z M1792,224v192
	c0,26.667-9.334,49.334-28,68c-18.667,18.667-41.334,28-68,28H736c-26.667,0-49.334-9.333-68-28c-18.667-18.666-28-41.333-28-68V224
	c0-26.666,9.333-49.333,28-68c18.666-18.666,41.333-28,68-28h960c26.666,0,49.333,9.334,68,28
	C1782.666,174.667,1792,197.334,1792,224z"/>
</svg>
