<?xml version="1.0" encoding="utf-8"?>
<!-- Generator: Adobe Illustrator 15.0.2, SVG Export Plug-In . SVG Version: 6.00 Build 0)  -->
<!DOCTYPE svg PUBLIC "-//W3C//DTD SVG 1.1//EN" "http://www.w3.org/Graphics/SVG/1.1/DTD/svg11.dtd">
<svg version="1.1" id="Layer_1" xmlns="http://www.w3.org/2000/svg" xmlns:xlink="http://www.w3.org/1999/xlink" x="0px" y="0px"
	 width="85px" height="92px" viewBox="0 0 85 92" enable-background="new 0 0 85 92" xml:space="preserve">
<g>
	<g>
		<path fill-rule="evenodd" clip-rule="evenodd" d="M85,42.058C85,18.83,65.973,0,42.5,0C19.028,0,0,18.83,0,42.058
			C0,63.296,15.911,80.848,36.579,83.7L42.5,92l5.384-8.232C68.812,81.147,85,63.479,85,42.058z M46.741,67.113L42.5,73.6
			l-4.683-6.564c-11.942-2.179-20.991-12.529-20.991-24.978c0-14.031,11.494-25.407,25.673-25.407
			c14.18,0,25.674,11.375,25.674,25.407C68.174,54.659,58.901,65.112,46.741,67.113z"/>
	</g>
</g>
</svg>
