<?xml version="1.0" encoding="utf-8"?>
<!-- Generator: Adobe Illustrator 15.0.2, SVG Export Plug-In . SVG Version: 6.00 Build 0)  -->
<!DOCTYPE svg PUBLIC "-//W3C//DTD SVG 1.1//EN" "http://www.w3.org/Graphics/SVG/1.1/DTD/svg11.dtd">
<svg version="1.1" id="Layer_1" xmlns="http://www.w3.org/2000/svg" xmlns:xlink="http://www.w3.org/1999/xlink" x="0px" y="0px"
	 width="37.99px" height="59.996px" viewBox="0 0 37.99 59.996" enable-background="new 0 0 37.99 59.996" xml:space="preserve">
<path d="M14.093,40.375l11.642-2.965c-0.7-0.697-1.312-2.006-1.312-3.488c0-6.54,13.567-7.499,13.567-19.969
	C37.99,5.581,30.812,0,19.258,0C12.08,0,4.814,2.791,0,8.197l8.403,9.592c2.451-2.791,5.865-4.535,9.191-4.535
	c3.764,0,5.165,1.482,5.165,3.401c0,4.36-11.292,5.843-11.292,15.697C11.467,35.666,12.43,38.37,14.093,40.375z M19.433,59.996
	c4.465,0,8.229-3.75,8.229-8.197c0-4.359-3.764-8.109-8.229-8.109c-4.464,0-8.228,3.75-8.228,8.109
	C11.205,56.246,14.968,59.996,19.433,59.996z"/>
</svg>
