<?xml version="1.0" encoding="utf-8"?>
<!-- Generator: Adobe Illustrator 15.0.2, SVG Export Plug-In . SVG Version: 6.00 Build 0)  -->
<!DOCTYPE svg PUBLIC "-//W3C//DTD SVG 1.1//EN" "http://www.w3.org/Graphics/SVG/1.1/DTD/svg11.dtd">
<svg version="1.1" id="Capa_1" xmlns="http://www.w3.org/2000/svg" xmlns:xlink="http://www.w3.org/1999/xlink" x="0px" y="0px"
	 width="456.814px" height="438.542px" viewBox="0 9.136 456.814 438.542" enable-background="new 0 9.136 456.814 438.542"
	 xml:space="preserve">
<g>
	<g>
		<path d="M441.11,252.677c10.468-11.99,15.704-26.17,15.704-42.54c0-14.847-5.432-27.692-16.259-38.548
			c-10.85-10.854-23.695-16.277-38.541-16.277h-79.082c0.76-2.664,1.521-4.948,2.282-6.852c0.753-1.902,1.811-3.999,3.138-6.282
			c1.328-2.285,2.283-3.999,2.852-5.14c3.426-6.468,6.047-11.801,7.857-15.984c1.807-4.192,3.605-9.9,5.42-17.134
			c1.811-7.229,2.711-14.465,2.711-21.697c0-4.566-0.055-8.281-0.145-11.135c-0.09-2.854-0.574-7.139-1.424-12.85
			c-0.861-5.708-2.006-10.467-3.43-14.272c-1.43-3.806-3.716-8.092-6.851-12.847c-3.143-4.764-6.947-8.613-11.424-11.564
			c-4.477-2.95-10.185-5.425-17.132-7.421c-6.954-1.999-14.801-2.998-23.562-2.998c-4.948,0-9.228,1.809-12.848,5.426
			c-3.806,3.806-7.047,8.563-9.709,14.271c-2.666,5.711-4.522,10.66-5.57,14.85c-1.047,4.187-2.238,9.994-3.565,17.415
			c-1.719,7.998-2.998,13.752-3.86,17.272c-0.854,3.521-2.524,8.136-4.996,13.845c-2.478,5.714-5.425,10.278-8.852,13.706
			c-6.28,6.28-15.891,17.701-28.837,34.26c-9.329,12.18-18.94,23.694-28.837,34.545c-9.899,10.852-17.131,16.466-21.698,16.847
			c-4.755,0.38-8.848,2.331-12.274,5.854c-3.428,3.521-5.141,7.661-5.141,12.419v183.01c0,4.949,1.808,9.182,5.424,12.703
			c3.615,3.524,7.898,5.38,12.848,5.57c6.661,0.191,21.697,4.374,45.11,12.566c14.654,4.941,26.12,8.706,34.4,11.272
			c8.278,2.565,19.849,5.328,34.684,8.282c14.85,2.948,28.552,4.428,41.11,4.428h4.855h21.7h10.275
			c25.321-0.38,44.062-7.806,56.247-22.269c11.036-13.135,15.697-30.36,13.99-51.679c7.422-7.042,12.565-15.984,15.416-26.836
			c3.23-11.604,3.23-22.74,0-33.397c8.754-11.61,12.847-24.648,12.271-39.114C445.395,268.286,443.971,261.055,441.11,252.677z"/>
		<path d="M100.5,191.864H18.276c-4.952,0-9.235,1.809-12.852,5.426C1.809,200.905,0,205.188,0,210.137v182.731
			c0,4.942,1.81,9.228,5.426,12.847c3.619,3.611,7.902,5.422,12.852,5.422H100.5c4.948,0,9.229-1.811,12.848-5.422
			c3.615-3.619,5.424-7.903,5.424-12.847V210.137c0-4.949-1.81-9.231-5.424-12.848C109.73,193.672,105.449,191.864,100.5,191.864z
			 M67.665,369.308c-3.616,3.521-7.897,5.28-12.847,5.28c-5.14,0-9.471-1.76-12.99-5.28c-3.521-3.521-5.281-7.851-5.281-12.99
			c0-4.948,1.76-9.232,5.281-12.847c3.521-3.617,7.851-5.429,12.99-5.429c4.949,0,9.23,1.812,12.847,5.429
			c3.617,3.613,5.426,7.897,5.426,12.847C73.091,361.458,71.286,365.786,67.665,369.308z"/>
	</g>
</g>
</svg>
