<?xml version="1.0" encoding="utf-8"?>
<!-- Generator: Adobe Illustrator 15.0.2, SVG Export Plug-In . SVG Version: 6.00 Build 0)  -->
<!DOCTYPE svg PUBLIC "-//W3C//DTD SVG 1.1//EN" "http://www.w3.org/Graphics/SVG/1.1/DTD/svg11.dtd">
<svg version="1.1" id="Capa_1" xmlns="http://www.w3.org/2000/svg" xmlns:xlink="http://www.w3.org/1999/xlink" x="0px" y="0px"
	 width="456.814px" height="438.542px" viewBox="0 9.136 456.814 438.542" enable-background="new 0 9.136 456.814 438.542"
	 xml:space="preserve">
<g>
	<g>
		<path d="M15.704,204.137C5.236,216.128,0,230.307,0,246.677c0,14.847,5.432,27.692,16.259,38.548
			c10.85,10.854,23.695,16.277,38.541,16.277h79.082c-0.76,2.664-1.521,4.948-2.282,6.852c-0.753,1.902-1.811,3.999-3.138,6.282
			c-1.328,2.285-2.283,3.999-2.852,5.14c-3.426,6.468-6.047,11.801-7.857,15.984c-1.807,4.192-3.605,9.9-5.42,17.134
			c-1.811,7.229-2.711,14.465-2.711,21.697c0,4.566,0.055,8.281,0.145,11.135c0.09,2.854,0.574,7.139,1.424,12.85
			c0.861,5.708,2.006,10.467,3.43,14.272c1.43,3.806,3.716,8.092,6.851,12.847c3.143,4.764,6.947,8.613,11.424,11.564
			c4.477,2.95,10.185,5.425,17.132,7.421c6.954,1.999,14.801,2.998,23.562,2.998c4.948,0,9.228-1.809,12.848-5.426
			c3.806-3.806,7.047-8.563,9.709-14.271c2.666-5.711,4.522-10.66,5.57-14.85c1.047-4.187,2.238-9.994,3.565-17.415
			c1.719-7.998,2.998-13.752,3.86-17.272c0.854-3.521,2.524-8.136,4.996-13.845c2.478-5.714,5.425-10.278,8.852-13.706
			c6.28-6.28,15.891-17.701,28.837-34.26c9.329-12.18,18.94-23.694,28.837-34.545c9.899-10.852,17.131-16.466,21.698-16.847
			c4.755-0.38,8.848-2.331,12.274-5.854c3.428-3.521,5.141-7.661,5.141-12.419V63.959c0-4.949-1.808-9.182-5.424-12.703
			c-3.615-3.524-7.898-5.38-12.848-5.57c-6.661-0.191-21.697-4.374-45.11-12.566c-14.654-4.941-26.12-8.706-34.4-11.272
			c-8.278-2.565-19.849-5.328-34.684-8.282c-14.85-2.948-28.552-4.428-41.11-4.428h-4.855h-21.7h-10.275
			c-25.321,0.38-44.062,7.806-56.247,22.269c-11.036,13.135-15.697,30.36-13.99,51.679c-7.422,7.042-12.565,15.984-15.416,26.836
			c-3.23,11.604-3.23,22.74,0,33.397c-8.754,11.61-12.847,24.648-12.271,39.114C11.419,188.529,12.843,195.76,15.704,204.137z"/>
		<path d="M356.314,264.951h82.224c4.952,0,9.235-1.809,12.852-5.426c3.615-3.615,5.425-7.898,5.425-12.848V63.946
			c0-4.942-1.81-9.228-5.426-12.847c-3.619-3.611-7.902-5.422-12.852-5.422h-82.223c-4.948,0-9.229,1.811-12.848,5.422
			c-3.615,3.619-5.424,7.903-5.424,12.847v182.731c0,4.949,1.81,9.231,5.424,12.848
			C347.084,263.143,351.365,264.951,356.314,264.951z M389.149,87.507c3.616-3.521,7.897-5.28,12.847-5.28
			c5.14,0,9.471,1.76,12.99,5.28c3.521,3.521,5.281,7.851,5.281,12.99c0,4.948-1.76,9.232-5.281,12.847
			c-3.521,3.617-7.851,5.429-12.99,5.429c-4.949,0-9.23-1.812-12.847-5.429c-3.617-3.613-5.426-7.897-5.426-12.847
			C383.723,95.357,385.528,91.029,389.149,87.507z"/>
	</g>
</g>
</svg>
