<?xml version="1.0" encoding="utf-8"?>
<!-- Generator: Adobe Illustrator 15.0.2, SVG Export Plug-In . SVG Version: 6.00 Build 0)  -->
<!DOCTYPE svg PUBLIC "-//W3C//DTD SVG 1.1//EN" "http://www.w3.org/Graphics/SVG/1.1/DTD/svg11.dtd">
<svg version="1.1" id="Layer_1" xmlns="http://www.w3.org/2000/svg" xmlns:xlink="http://www.w3.org/1999/xlink" x="0px" y="0px"
	 width="198px" height="192px" viewBox="0 0 198 192" enable-background="new 0 0 198 192" xml:space="preserve">
<path d="M198,182.686c0,0,0-33.858-24.709-46.167c-15.639-7.789-9.615-1.83-28.815-9.799c-19.196-7.959-23.744-10.559-23.744-10.559
	l-0.167-18.251c0,0,7.189-5.464,9.433-22.724c4.486,1.301,6.008-5.268,6.25-9.465c0.266-4.054,2.654-16.691-2.837-15.563
	c1.122-8.437,2.004-16.065,1.605-20.104C133.642,15.882,123.854,1.081,99.147,0C78.141,1.081,64.504,15.892,63.127,30.064
	c-0.396,4.039,0.412,11.661,1.535,20.113c-5.488-1.143-3.125,11.518-2.883,15.569c0.266,4.196,1.751,10.784,6.249,9.483
	c2.233,17.264,9.423,22.768,9.423,22.768l-0.179,18.348c0,0-4.548,2.777-23.744,10.734c-19.197,7.973-13.176,1.65-28.815,9.438
	C0,148.832,0,182.686,0,182.686h0.006C0.003,182.692,0,182.702,0,182.708C0,187.839,4.155,192,9.281,192h179.435
	c5.126,0,9.281-4.16,9.281-9.292c0-0.009-0.003-0.016-0.003-0.021H198z"/>
</svg>
