<svg xmlns="http://www.w3.org/2000/svg"><symbol id="icon-add" viewBox="256 256 1536 1536"><path d="M1472 1088V960c0-17.333-6.333-32.333-19-45s-27.667-19-45-19h-256V640c0-17.333-6.333-32.333-19-45s-27.667-19-45-19H960c-17.333 0-32.333 6.333-45 19s-19 27.667-19 45v256H640c-17.333 0-32.333 6.333-45 19s-19 27.667-19 45v128c0 17.333 6.333 32.333 19 45s27.667 19 45 19h256v256c0 17.333 6.333 32.333 19 45s27.667 19 45 19h128c17.333 0 32.333-6.333 45-19s19-27.667 19-45v-256h256c17.333 0 32.333-6.333 45-19s19-27.667 19-45zm320-64c0 139.333-34.334 267.833-103 385.5-68.667 117.667-161.833 210.833-279.5 279.5s-246.167 103-385.5 103-267.833-34.333-385.5-103-210.833-161.833-279.5-279.5-103-246.167-103-385.5 34.333-267.833 103-385.5C427.667 520.833 520.833 427.667 638.5 359S884.667 256 1024 256s267.833 34.333 385.5 103c117.667 68.667 210.833 161.833 279.5 279.5 68.666 117.667 103 246.167 103 385.5z"/></symbol><symbol id="icon-answer" viewBox="0 0 1792 1792"><path d="M704 384q-153 0-286 52T206.5 577 128 768q0 82 53 158t149 132l97 56-35 84q34-20 62-39l44-31 53 10q78 14 153 14 153 0 286-52t211.5-141 78.5-191-78.5-191T990 436t-286-52zm0-128q191 0 353.5 68.5T1314 511t94 257-94 257-256.5 186.5T704 1280q-86 0-176-16-124 88-278 128-36 9-86 16h-3q-11 0-20.5-8t-11.5-21q-1-3-1-6.5t.5-6.5 2-6l2.5-5 3.5-5.5 4-5 4.5-5 4-4.5q5-6 23-25t26-29.5 22.5-29 25-38.5 20.5-44q-124-72-195-177T0 768q0-139 94-257t256.5-186.5T704 256zm822 1169q10 24 20.5 44t25 38.5 22.5 29 26 29.5 23 25q1 1 4 4.5t4.5 5 4 5 3.5 5.5l2.5 5 2 6 .5 6.5-1 6.5q-3 14-13 22t-22 7q-50-7-86-16-154-40-278-128-90 16-176 16-271 0-472-132 58 4 88 4 161 0 309-45t264-129q125-92 192-212t67-254q0-77-23-152 129 71 204 178t75 230q0 120-71 224.5T1526 1425z"/></symbol><symbol id="icon-arrow-left" viewBox="0 0 15.532 24.683"><path fill-rule="evenodd" clip-rule="evenodd" d="M12.497 0l3.035 3.036-9.836 9.21 9.462 9.463-2.85 2.972L0 12.372 12.497 0z"/></symbol><symbol id="icon-arrow-right" viewBox="0 0 15.532 24.683"><path fill-rule="evenodd" clip-rule="evenodd" d="M15.532 12.373l-12.31 12.31L.374 21.71l9.462-9.462L0 3.036 3.035 0l12.497 12.373z"/></symbol><symbol id="icon-check" viewBox="0 0 1032 762"><path d="M923 19C910.332 6.334 895.332 0 878 0c-17.334 0-32.334 6.334-45 19L425 426 199 200c-12.668-12.666-27.668-19-45-19-17.334 0-32.334 6.334-45 19l-91 90C6 302 0 317.334 0 336c0 18 6 33 18 45l362 362c12.666 12.668 27.666 19 45 19 18 0 33.332-6.332 46-19l543-543c12-12 18-27 18-45 0-18.666-6-34-18-46l-91-90z"/></symbol><symbol id="icon-exclamation" viewBox="0 0 12.999 59.998"><path d="M10.98 39.79L12.597 0H.242l1.696 39.79h9.043zM6.46 60c3.553 0 6.54-3.28 6.54-7.09 0-3.9-2.987-7.18-6.54-7.18S0 49.01 0 52.91c0 3.81 2.907 7.09 6.46 7.09z"/></symbol><symbol id="icon-heart" viewBox="0 0 492.719 492.719"><path d="M492.72 166.008c0-73.486-59.574-133.056-133.06-133.056-47.985 0-89.89 25.484-113.302 63.57-23.408-38.086-65.332-63.57-113.316-63.57C59.556 32.952 0 92.522 0 166.008c0 40.01 17.73 75.803 45.67 100.178L234.217 454.74c3.22 3.22 7.587 5.028 12.142 5.028s8.922-1.81 12.142-5.03l188.545-188.552c27.943-24.375 45.674-60.17 45.674-100.178z"/></symbol><symbol id="icon-idea" viewBox="0 0 63 60"><path d="M32.026.204c-10.318 0-18.682 8.518-18.682 19.025 0 11.904 10.675 16.035 10.675 27.152l16.013-2.878c0-8.967 10.675-12.37 10.675-24.275C50.708 8.72 42.344.203 32.026.203zm6.41 44.873l-13.343 2.718c-.723.147-1.19.863-1.047 1.6.127.646.684 1.093 1.307 1.093.087 0 .175-.01.263-.026l13.344-2.72c.723-.145 1.19-.86 1.047-1.598s-.85-1.213-1.57-1.067zm0 4.077l-13.343 2.718c-.723.147-1.19.863-1.047 1.6.127.646.684 1.093 1.307 1.093.087 0 .175-.01.263-.026l13.344-2.72c.723-.146 1.19-.863 1.047-1.6-.145-.736-.85-1.213-1.57-1.066zM32.027 60c2.21 0 4.003-1.527 4.003-5.436l-8.007 1.358c0 2.252 1.793 4.078 4.003 4.078zM58.854 0l-8.19 6.09c.3.44.57.898.84 1.357l9.15-4.313L58.853 0zM5.196.008l-1.8 3.132 9.147 4.313c.27-.46.544-.916.844-1.356L5.197.007zm-1.78 32.59L5.18 35.75l7.174-5.146c-.29-.535-.566-1.093-.83-1.66l-8.108 3.653zm6.032-15.51L.022 16.056 0 19.686l9.362-.858c.01-.588.033-1.167.086-1.74zm44.11 1.65l9.442.863-.043-3.63L53.61 17c.004.586-.01 1.165-.053 1.74zm-1.97 11.796l7.28 5.222 1.766-3.153-8.164-3.678c-.28.56-.577 1.09-.88 1.61z"/></symbol><symbol id="icon-list" viewBox="0 128 1792 1408"><path d="M512 1248v192c0 26.667-9.334 49.334-28 68-18.667 18.667-41.334 28-68 28H96c-26.667 0-49.334-9.333-68-28-18.667-18.666-28-41.333-28-68v-192c0-26.666 9.333-49.333 28-68 18.666-18.666 41.333-28 68-28h320c26.666 0 49.333 9.334 68 28 18.666 18.667 28 41.334 28 68zm0-512v192c0 26.667-9.334 49.334-28 68-18.667 18.667-41.334 28-68 28H96c-26.667 0-49.334-9.333-68-28-18.667-18.666-28-41.333-28-68V736c0-26.666 9.333-49.333 28-68 18.666-18.666 41.333-28 68-28h320c26.666 0 49.333 9.334 68 28 18.666 18.667 28 41.334 28 68zm1280 512v192c0 26.667-9.334 49.334-28 68-18.667 18.667-41.334 28-68 28H736c-26.667 0-49.334-9.333-68-28-18.667-18.666-28-41.333-28-68v-192c0-26.666 9.333-49.333 28-68 18.666-18.666 41.333-28 68-28h960c26.666 0 49.333 9.334 68 28 18.666 18.667 28 41.334 28 68zM512 224v192c0 26.667-9.334 49.334-28 68-18.667 18.667-41.334 28-68 28H96c-26.667 0-49.334-9.333-68-28-18.667-18.666-28-41.333-28-68V224c0-26.666 9.333-49.333 28-68 18.666-18.666 41.333-28 68-28h320c26.666 0 49.333 9.334 68 28 18.666 18.667 28 41.334 28 68zm1280 512v192c0 26.667-9.334 49.334-28 68-18.667 18.667-41.334 28-68 28H736c-26.667 0-49.334-9.333-68-28-18.667-18.666-28-41.333-28-68V736c0-26.666 9.333-49.333 28-68 18.666-18.666 41.333-28 68-28h960c26.666 0 49.333 9.334 68 28 18.666 18.667 28 41.334 28 68zm0-512v192c0 26.667-9.334 49.334-28 68-18.667 18.667-41.334 28-68 28H736c-26.667 0-49.334-9.333-68-28-18.667-18.666-28-41.333-28-68V224c0-26.666 9.333-49.333 28-68 18.666-18.666 41.333-28 68-28h960c26.666 0 49.333 9.334 68 28 18.666 18.667 28 41.334 28 68z"/></symbol><symbol id="icon-news" viewBox="0 0 44 40"><path d="M42 0H8C6.896 0 6 .896 6 2v30c0 .553-.447 1-1 1s-1-.447-1-1V8H2c-1.104 0-2 .896-2 2v24c0 3.312 2.687 6 6 6h36c1.104 0 2-.895 2-2V2c0-1.104-.896-2-2-2zM12 7c0-.552.447-1 1-1h10c.553 0 1 .448 1 1v12c0 .553-.447 1-1 1H13c-.553 0-1-.447-1-1V7zm25 25H13c-.553 0-1-.447-1-1 0-.552.447-1 1-1h24c.553 0 1 .448 1 1 0 .553-.447 1-1 1zm0-6H13c-.553 0-1-.447-1-1 0-.552.447-1 1-1h24c.553 0 1 .448 1 1 0 .553-.447 1-1 1zm0-6h-8c-.553 0-1-.447-1-1 0-.553.447-1 1-1h8c.553 0 1 .447 1 1 0 .553-.447 1-1 1zm0-6h-8c-.553 0-1-.447-1-1 0-.552.447-1 1-1h8c.553 0 1 .448 1 1 0 .553-.447 1-1 1zm0-6h-8c-.553 0-1-.447-1-1 0-.552.447-1 1-1h8c.553 0 1 .448 1 1 0 .553-.447 1-1 1z"/></symbol><symbol id="icon-opp" viewBox="0 0 85 92"><path fill-rule="evenodd" clip-rule="evenodd" d="M85 42.058C85 18.83 65.973 0 42.5 0 19.028 0 0 18.83 0 42.058 0 63.296 15.91 80.848 36.58 83.7L42.5 92l5.384-8.232C68.812 81.148 85 63.478 85 42.058zM46.74 67.113L42.5 73.6l-4.683-6.564c-11.942-2.18-20.99-12.53-20.99-24.978 0-14.03 11.493-25.407 25.672-25.407 14.18 0 25.673 11.376 25.673 25.408 0 12.6-9.272 23.054-21.432 25.055z"/></symbol><symbol id="icon-question" viewBox="0 0 37.99 59.996"><path d="M14.093 40.375l11.642-2.965c-.7-.697-1.312-2.006-1.312-3.488 0-6.54 13.567-7.5 13.567-19.97C37.99 5.583 30.812 0 19.258 0 12.08 0 4.814 2.79 0 8.197l8.403 9.592c2.45-2.792 5.865-4.536 9.19-4.536 3.765 0 5.166 1.482 5.166 3.4 0 4.36-11.293 5.844-11.293 15.698 0 3.314.963 6.018 2.626 8.023zm5.34 19.62c4.465 0 8.23-3.75 8.23-8.196 0-4.36-3.765-8.11-8.23-8.11-4.464 0-8.228 3.75-8.228 8.11 0 4.446 3.763 8.196 8.228 8.196z"/></symbol><symbol id="icon-rate1" viewBox="0 0 106.059 106.059"><path d="M90.546 15.518c-20.688-20.69-54.347-20.69-75.03-.005-20.69 20.685-20.687 54.345 0 75.034C36.2 111.23 69.86 111.23 90.545 90.543c20.686-20.685 20.685-54.343.002-75.025zm-5.79 69.24c-17.493 17.494-45.96 17.496-63.454.002-17.498-17.497-17.496-45.966 0-63.46 17.494-17.493 45.96-17.495 63.457.002 17.493 17.494 17.49 45.963-.003 63.456zM77.017 74c.66 1.522-.04 3.287-1.56 3.944-1.522.66-3.287-.042-3.945-1.562-2.892-6.69-9.73-11.012-17.42-11.012-7.868 0-14.747 4.32-17.522 11.004-.48 1.154-1.596 1.85-2.77 1.85-.385 0-.774-.073-1.15-.23-1.53-.635-2.256-2.39-1.62-3.92C34.737 65.142 43.79 59.37 54.09 59.37c10.084 0 19.084 5.743 22.927 14.63zM33.24 38.67c0-3.423 2.777-6.2 6.2-6.2 3.424 0 6.2 2.776 6.2 6.2 0 3.427-2.776 6.203-6.2 6.203-3.423 0-6.2-2.776-6.2-6.202zm28.117 0c0-3.423 2.78-6.2 6.203-6.2 3.423 0 6.2 2.776 6.2 6.2 0 3.427-2.776 6.203-6.2 6.203s-6.203-2.776-6.203-6.202z"/></symbol><symbol id="icon-rate2" viewBox="0 0 106.059 106.059"><path d="M90.545 90.542c20.686-20.685 20.684-54.342.002-75.024-20.69-20.69-54.35-20.69-75.033-.005-20.687 20.685-20.685 54.345.002 75.034 20.682 20.683 54.34 20.683 75.03-.005zM21.3 21.3c17.494-17.493 45.96-17.495 63.46.002 17.493 17.494 17.49 45.962-.003 63.455-17.494 17.494-45.962 17.496-63.456.002-17.497-17.497-17.495-45.966 0-63.46z"/><path d="M28.65 41.818h13.373c1.738 0 3.147-1.41 3.147-3.146 0-1.738-1.41-3.147-3.147-3.147H28.65c-1.737 0-3.146 1.41-3.146 3.147 0 1.737 1.41 3.146 3.147 3.146zM64.033 41.82h13.372c1.738 0 3.147-1.41 3.147-3.147 0-1.738-1.41-3.147-3.147-3.147H64.033c-1.736 0-3.146 1.41-3.146 3.147 0 1.737 1.41 3.146 3.146 3.146zM30.423 71.03c0 1.92 1.558 3.478 3.48 3.478H72.16c1.923 0 3.48-1.558 3.48-3.48s-1.558-3.477-3.48-3.477H33.9c-1.92.002-3.477 1.558-3.477 3.48z"/></symbol><symbol id="icon-rate3" viewBox="0 0 106.059 106.059"><path d="M90.546 15.518c-20.688-20.69-54.347-20.69-75.03-.005-20.69 20.685-20.687 54.345 0 75.034C36.2 111.23 69.86 111.23 90.545 90.543c20.686-20.685 20.685-54.343.002-75.025zm-5.79 69.24c-17.493 17.494-45.96 17.496-63.454.002-17.498-17.497-17.496-45.966 0-63.46 17.494-17.493 45.96-17.495 63.457.002 17.493 17.494 17.49 45.963-.003 63.456zM33.24 38.67c0-3.423 2.777-6.2 6.2-6.2 3.424 0 6.2 2.776 6.2 6.2 0 3.427-2.776 6.203-6.2 6.203-3.423 0-6.2-2.776-6.2-6.202zm28.117 0c0-3.423 2.78-6.2 6.203-6.2 3.423 0 6.2 2.776 6.2 6.2 0 3.427-2.776 6.203-6.2 6.203s-6.203-2.776-6.203-6.202zm14.66 25.398c-3.843 8.887-12.843 14.63-22.927 14.63-10.3 0-19.354-5.772-23.064-14.704-.636-1.53.09-3.285 1.62-3.92.376-.156.766-.23 1.15-.23 1.176 0 2.292.695 2.77 1.85 2.778 6.686 9.656 11.004 17.524 11.004 7.69 0 14.528-4.32 17.42-11.01.658-1.522 2.424-2.223 3.944-1.564s2.22 2.424 1.563 3.944z"/></symbol><symbol id="icon-test" viewBox="0 0 197.183 153.091"><path d="M158.158 153.093l-15.71-1.57c-34.32-3.42-79.85-15.59-92.1-52.59-4.93-13.48-4.31-28.23 1.72-41.25 6.04-13.04 16.91-23.05 30.4-28 13.49-4.95 28.26-4.34 41.3 1.7 13.04 6.03 23.06 16.91 28.01 30.4 6.84 18.63 2.88 39.47-10.18 54.31-6.71 10.14-8.49 21.52 3.13 28.7l13.43 8.3zm-26.97-45.89c9.86-11.1 12.85-26.76 7.74-40.7-3.7-10.09-11.17-18.19-20.91-22.7-9.74-4.51-20.76-4.97-30.83-1.27-10.08 3.69-18.19 11.16-22.7 20.9-4.51 9.74-4.97 20.76-1.27 30.84l.06.16.05.15c8.05 24.41 36.32 35.43 59.5 40.18-1.11-9.28 2.37-18.77 7.53-26.47l.38-.58.45-.51z"/><path fill-rule="evenodd" clip-rule="evenodd" d="M122.397 23.158c1.944-1.025 3.965-1.93 6.056-2.695 12.25-4.494 25.664-3.943 37.5 1.54 11.84 5.484 20.942 15.36 25.437 27.61 6.208 16.92 2.617 35.84-9.244 49.323-6.094 9.21-7.71 19.535 2.84 26.057l12.197 7.535-14.266-1.42c-11.76-1.172-24.972-3.477-37.458-7.697.53-1.013 1.135-2.026 1.783-3.028 2.077-2.402 3.942-4.94 5.6-7.59 4.145 1.264 8.286 2.28 12.256 3.096-1.003-8.425 2.154-17.05 6.837-24.044l.345-.518.417-.468c8.948-10.078 11.665-24.302 7.02-36.962-3.357-9.154-10.14-16.516-18.987-20.614-7.534-3.49-15.903-4.3-23.874-2.394-3.15-2.272-6.535-4.26-10.122-5.922-1.428-.66-2.877-1.262-4.34-1.808M110.128 19.995C103.56 12.79 95.305 7.2 85.938 3.765 70.624-1.852 53.848-1.162 39.05 5.693c-14.805 6.86-26.184 19.205-31.803 34.526C-.518 61.37 3.973 85.03 18.802 101.886c7.62 11.514 9.64 24.428-3.547 32.58L0 143.89l17.838-1.773c14.976-1.493 31.832-4.458 47.7-9.92-4.52-3.65-8.607-7.76-12.112-12.385-4.508 1.307-8.985 2.387-13.306 3.27 1.256-10.534-2.695-21.32-8.55-30.065l-.432-.648-.52-.585c-11.19-12.602-14.59-30.385-8.784-46.218 4.2-11.443 12.682-20.65 23.743-25.773 11.06-5.123 23.565-5.636 35.008-1.437 2.074.76 4.076 1.665 5.994 2.698 7.725-1.882 15.734-2.23 23.548-1.06"/></symbol><symbol id="icon-thumb-down" viewBox="0 9.136 456.814 438.542"><path d="M15.704 204.137C5.236 216.127 0 230.307 0 246.677c0 14.847 5.432 27.692 16.26 38.548 10.85 10.854 23.694 16.277 38.54 16.277h79.082c-.76 2.664-1.52 4.948-2.282 6.852-.753 1.902-1.81 4-3.138 6.282-1.328 2.285-2.283 4-2.852 5.14-3.426 6.468-6.047 11.8-7.857 15.984-1.807 4.192-3.605 9.9-5.42 17.134-1.81 7.23-2.71 14.465-2.71 21.697 0 4.567.054 8.282.144 11.136.09 2.854.574 7.14 1.424 12.85.862 5.708 2.007 10.467 3.43 14.272 1.43 3.806 3.717 8.092 6.852 12.847 3.143 4.764 6.947 8.613 11.424 11.564 4.477 2.95 10.185 5.424 17.132 7.42 6.954 2 14.8 2.998 23.562 2.998 4.948 0 9.228-1.81 12.848-5.426 3.806-3.806 7.047-8.563 9.71-14.27 2.665-5.712 4.52-10.66 5.57-14.85 1.046-4.188 2.237-9.995 3.564-17.416 1.72-7.998 2.998-13.752 3.86-17.272.854-3.52 2.524-8.136 4.996-13.845 2.478-5.715 5.425-10.28 8.852-13.707 6.28-6.28 15.89-17.7 28.837-34.26 9.33-12.18 18.94-23.694 28.837-34.545 9.9-10.852 17.13-16.466 21.698-16.847 4.755-.38 8.848-2.33 12.274-5.853 3.428-3.52 5.14-7.66 5.14-12.42V63.96c0-4.95-1.807-9.183-5.423-12.704-3.615-3.524-7.898-5.38-12.848-5.57-6.66-.19-21.697-4.374-45.11-12.566-14.654-4.94-26.12-8.706-34.4-11.272-8.278-2.565-19.85-5.328-34.684-8.282-14.85-2.948-28.55-4.428-41.11-4.428h-36.829c-25.32.38-44.06 7.806-56.246 22.27-11.036 13.134-15.697 30.36-13.99 51.678-7.422 7.042-12.565 15.984-15.416 26.836-3.23 11.604-3.23 22.74 0 33.397-8.754 11.61-12.847 24.647-12.27 39.113-.03 6.096 1.395 13.327 4.256 21.704zM356.314 264.95h82.224c4.952 0 9.235-1.808 12.852-5.425 3.615-3.615 5.425-7.898 5.425-12.848V63.947c0-4.943-1.81-9.23-5.426-12.848-3.62-3.612-7.903-5.423-12.853-5.423h-82.223c-4.948 0-9.23 1.81-12.848 5.422-3.615 3.618-5.424 7.902-5.424 12.846v182.73c0 4.95 1.81 9.232 5.424 12.85 3.618 3.617 7.9 5.425 12.848 5.425zM389.15 87.508c3.615-3.52 7.896-5.28 12.846-5.28 5.14 0 9.47 1.76 12.99 5.28 3.52 3.52 5.28 7.85 5.28 12.99 0 4.948-1.76 9.232-5.28 12.847-3.52 3.617-7.85 5.43-12.99 5.43-4.95 0-9.23-1.813-12.847-5.43-3.618-3.613-5.427-7.897-5.427-12.847 0-5.14 1.805-9.468 5.426-12.99z"/></symbol><symbol id="icon-thumb-up" viewBox="0 9.136 456.814 438.542"><path d="M441.11 252.677c10.468-11.99 15.704-26.17 15.704-42.54 0-14.847-5.432-27.692-16.26-38.548-10.85-10.855-23.694-16.278-38.54-16.278h-79.082c.76-2.664 1.52-4.948 2.282-6.852.753-1.902 1.81-4 3.138-6.282 1.328-2.285 2.283-4 2.852-5.14 3.426-6.468 6.047-11.8 7.857-15.984 1.808-4.192 3.606-9.9 5.42-17.134 1.812-7.23 2.712-14.465 2.712-21.697 0-4.566-.055-8.28-.145-11.135-.09-2.854-.574-7.14-1.424-12.85-.86-5.708-2.006-10.467-3.43-14.272-1.43-3.806-3.716-8.092-6.85-12.847-3.144-4.765-6.948-8.614-11.425-11.565-4.477-2.95-10.185-5.425-17.132-7.42-6.954-2-14.8-3-23.562-3-4.948 0-9.228 1.81-12.848 5.427-3.806 3.806-7.047 8.563-9.71 14.27-2.665 5.712-4.52 10.66-5.57 14.85-1.046 4.188-2.237 9.995-3.564 17.416-1.72 7.998-2.998 13.752-3.86 17.272-.854 3.52-2.524 8.136-4.996 13.845-2.478 5.714-5.425 10.278-8.852 13.706-6.28 6.28-15.89 17.702-28.837 34.26-9.33 12.18-18.94 23.695-28.837 34.546-9.9 10.852-17.13 16.466-21.698 16.847-4.755.38-8.848 2.33-12.274 5.854-3.428 3.52-5.14 7.66-5.14 12.42v183.01c0 4.948 1.807 9.18 5.423 12.702 3.616 3.523 7.9 5.38 12.85 5.57 6.66.19 21.696 4.373 45.11 12.565 14.653 4.94 26.12 8.706 34.4 11.272 8.277 2.565 19.848 5.328 34.683 8.282 14.85 2.947 28.552 4.427 41.11 4.427h36.83c25.32-.38 44.062-7.806 56.247-22.27 11.036-13.134 15.697-30.36 13.99-51.678 7.422-7.043 12.565-15.985 15.416-26.837 3.23-11.604 3.23-22.74 0-33.397 8.754-11.61 12.847-24.648 12.27-39.114.03-6.096-1.395-13.327-4.256-21.705zM100.5 191.864H18.276c-4.952 0-9.235 1.81-12.852 5.426C1.81 200.905 0 205.188 0 210.137v182.73c0 4.943 1.81 9.23 5.426 12.848 3.62 3.61 7.902 5.422 12.852 5.422H100.5c4.948 0 9.23-1.81 12.848-5.422 3.615-3.62 5.424-7.903 5.424-12.847v-182.73c0-4.95-1.81-9.232-5.424-12.85-3.618-3.616-7.9-5.424-12.848-5.424zM67.665 369.308c-3.616 3.52-7.897 5.28-12.847 5.28-5.14 0-9.47-1.76-12.99-5.28-3.52-3.52-5.28-7.85-5.28-12.99 0-4.948 1.76-9.232 5.28-12.847 3.52-3.616 7.85-5.428 12.99-5.428 4.95 0 9.23 1.812 12.847 5.43 3.617 3.612 5.426 7.896 5.426 12.846 0 5.14-1.804 9.468-5.425 12.99z"/></symbol><symbol id="icon-user" viewBox="0 0 198 192"><path d="M198 182.686s0-33.858-24.71-46.167c-15.638-7.79-9.614-1.83-28.814-9.8-19.196-7.96-23.744-10.56-23.744-10.56l-.167-18.25s7.19-5.464 9.433-22.724c4.486 1.3 6.008-5.268 6.25-9.465.266-4.053 2.654-16.69-2.837-15.562 1.123-8.437 2.005-16.065 1.606-20.104C133.642 15.882 123.854 1.08 99.146 0c-21.005 1.08-34.642 15.892-36.02 30.064-.395 4.04.413 11.66 1.536 20.113-5.488-1.143-3.125 11.518-2.883 15.57.265 4.195 1.75 10.783 6.248 9.482 2.233 17.263 9.423 22.767 9.423 22.767l-.178 18.348s-4.548 2.777-23.744 10.734c-19.197 7.972-13.176 1.65-28.815 9.437C0 148.832 0 182.687 0 182.687h.006c-.003.005-.006.015-.006.02C0 187.84 4.155 192 9.28 192h179.436c5.126 0 9.28-4.16 9.28-9.292l-.002-.02H198z"/></symbol></svg>