<svg xmlns="http://www.w3.org/2000/svg">
    <symbol id="logo" viewBox="0 0 197.183 153.091"><g><path d="M158.158 153.093l-15.71-1.57c-34.32-3.42-79.85-15.59-92.1-52.59-4.93-13.48-4.31-28.23 1.72-41.25 6.04-13.04 16.91-23.05 30.4-28 13.49-4.95 28.26-4.34 41.3 1.7 13.04 6.03 23.06 16.91 28.01 30.4 6.84 18.63 2.88 39.47-10.18 54.31-6.71 10.14-8.49 21.52 3.13 28.7l13.43 8.3zm-26.97-45.89c9.86-11.1 12.85-26.76 7.74-40.7-3.7-10.09-11.17-18.19-20.91-22.7-9.74-4.51-20.76-4.97-30.83-1.27-10.08 3.69-18.19 11.16-22.7 20.9-4.51 9.74-4.97 20.76-1.27 30.84l.06.16.05.15c8.05 24.41 36.32 35.43 59.5 40.18-1.11-9.28 2.37-18.77 7.53-26.47l.38-.58.45-.51z"/><path fill="currentColor" d="M138.93 66.503c5.108 13.94 2.12 29.6-7.74 40.7l-.45.51-.38.58c-5.16 7.7-8.64 17.19-7.53 26.47-23.18-4.75-51.45-15.77-59.5-40.18l-.05-.15-.06-.16c-3.7-10.08-3.24-21.1 1.27-30.84 4.51-9.74 12.62-17.21 22.7-20.9 10.07-3.7 21.09-3.24 30.83 1.27 9.74 4.51 17.21 12.61 20.91 22.7z"/></g><path fill-rule="evenodd" clip-rule="evenodd" d="M122.397 23.158c1.944-1.025 3.965-1.93 6.056-2.695 12.25-4.494 25.664-3.943 37.5 1.54 11.84 5.484 20.942 15.36 25.437 27.61 6.208 16.92 2.617 35.84-9.244 49.323-6.094 9.21-7.71 19.535 2.84 26.057l12.197 7.535-14.266-1.42c-11.76-1.172-24.972-3.477-37.458-7.697.53-1.013 1.135-2.026 1.783-3.028 2.077-2.402 3.942-4.94 5.6-7.59 4.145 1.264 8.286 2.28 12.256 3.096-1.003-8.425 2.154-17.05 6.837-24.044l.345-.518.417-.468c8.948-10.078 11.665-24.302 7.02-36.962-3.357-9.154-10.14-16.516-18.987-20.614-7.534-3.49-15.903-4.3-23.874-2.394-3.15-2.272-6.535-4.26-10.122-5.922-1.428-.66-2.877-1.262-4.34-1.808M110.128 19.995C103.56 12.79 95.305 7.2 85.938 3.765 70.624-1.852 53.848-1.162 39.05 5.693c-14.805 6.86-26.184 19.205-31.803 34.526C-.518 61.37 3.973 85.03 18.802 101.886c7.62 11.514 9.64 24.428-3.547 32.58L0 143.89l17.838-1.773c14.976-1.493 31.832-4.458 47.7-9.92-4.52-3.65-8.607-7.76-12.112-12.385-4.508 1.307-8.985 2.387-13.306 3.27 1.256-10.534-2.695-21.32-8.55-30.065l-.432-.648-.52-.585c-11.19-12.602-14.59-30.385-8.784-46.218 4.2-11.443 12.682-20.65 23.743-25.773 11.06-5.123 23.565-5.636 35.008-1.437 2.074.76 4.076 1.665 5.994 2.698 7.725-1.882 15.734-2.23 23.548-1.06"/></symbol></svg>
