<svg xmlns="http://www.w3.org/2000/svg" width="1536" height="1536" viewBox="256 256 1536 1536"><path d="M1472 1088V960c0-17.333-6.333-32.333-19-45s-27.667-19-45-19h-256V640c0-17.333-6.333-32.333-19-45s-27.667-19-45-19H960c-17.333 0-32.333 6.333-45 19s-19 27.667-19 45v256H640c-17.333 0-32.333 6.333-45 19s-19 27.667-19 45v128c0 17.333 6.333 32.333 19 45s27.667 19 45 19h256v256c0 17.333 6.333 32.333 19 45s27.667 19 45 19h128c17.333 0 32.333-6.333 45-19s19-27.667 19-45v-256h256c17.333 0 32.333-6.333 45-19s19-27.667 19-45zm320-64c0 139.333-34.334 267.833-103 385.5-68.667 117.667-161.833 210.833-279.5 279.5s-246.167 103-385.5 103-267.833-34.333-385.5-103-210.833-161.833-279.5-279.5-103-246.167-103-385.5 34.333-267.833 103-385.5C427.667 520.833 520.833 427.667 638.5 359S884.667 256 1024 256s267.833 34.333 385.5 103c117.667 68.667 210.833 161.833 279.5 279.5 68.666 117.667 103 246.167 103 385.5z"/></svg>