<svg xmlns="http://www.w3.org/2000/svg" width="63" height="60" viewBox="0 0 63 60"><path fill="#020202" d="M32.026.204c-10.318 0-18.682 8.518-18.682 19.025 0 11.904 10.675 16.035 10.675 27.152l16.013-2.878c0-8.967 10.675-12.37 10.675-24.275C50.708 8.72 42.344.203 32.026.203zm6.41 44.873l-13.343 2.718c-.723.147-1.19.863-1.047 1.6.127.646.684 1.093 1.307 1.093.087 0 .175-.01.263-.026l13.344-2.72c.723-.145 1.19-.86 1.047-1.598s-.85-1.213-1.57-1.067zm0 4.077l-13.343 2.718c-.723.147-1.19.863-1.047 1.6.127.646.684 1.093 1.307 1.093.087 0 .175-.01.263-.026l13.344-2.72c.723-.146 1.19-.863 1.047-1.6-.145-.736-.85-1.213-1.57-1.066zM32.027 60c2.21 0 4.003-1.527 4.003-5.436l-8.007 1.358c0 2.252 1.793 4.078 4.003 4.078zM58.854 0l-8.19 6.09c.3.44.57.898.84 1.357l9.15-4.313L58.853 0zM5.196.008l-1.8 3.132 9.147 4.313c.27-.46.544-.916.844-1.356L5.197.007zm-1.78 32.59L5.18 35.75l7.174-5.146c-.29-.535-.566-1.093-.83-1.66l-8.108 3.653zm6.032-15.51L.022 16.056 0 19.686l9.362-.858c.01-.588.033-1.167.086-1.74zm44.11 1.65l9.442.863-.043-3.63L53.61 17c.004.586-.01 1.165-.053 1.74zm-1.97 11.796l7.28 5.222 1.766-3.153-8.164-3.678c-.28.56-.577 1.09-.88 1.61z"/></svg>