<svg xmlns="http://www.w3.org/2000/svg" width="1792" height="1408" viewBox="0 128 1792 1408"><path d="M512 1248v192c0 26.667-9.334 49.334-28 68-18.667 18.667-41.334 28-68 28H96c-26.667 0-49.334-9.333-68-28-18.667-18.666-28-41.333-28-68v-192c0-26.666 9.333-49.333 28-68 18.666-18.666 41.333-28 68-28h320c26.666 0 49.333 9.334 68 28 18.666 18.667 28 41.334 28 68zm0-512v192c0 26.667-9.334 49.334-28 68-18.667 18.667-41.334 28-68 28H96c-26.667 0-49.334-9.333-68-28-18.667-18.666-28-41.333-28-68V736c0-26.666 9.333-49.333 28-68 18.666-18.666 41.333-28 68-28h320c26.666 0 49.333 9.334 68 28 18.666 18.667 28 41.334 28 68zm1280 512v192c0 26.667-9.334 49.334-28 68-18.667 18.667-41.334 28-68 28H736c-26.667 0-49.334-9.333-68-28-18.667-18.666-28-41.333-28-68v-192c0-26.666 9.333-49.333 28-68 18.666-18.666 41.333-28 68-28h960c26.666 0 49.333 9.334 68 28 18.666 18.667 28 41.334 28 68zM512 224v192c0 26.667-9.334 49.334-28 68-18.667 18.667-41.334 28-68 28H96c-26.667 0-49.334-9.333-68-28-18.667-18.666-28-41.333-28-68V224c0-26.666 9.333-49.333 28-68 18.666-18.666 41.333-28 68-28h320c26.666 0 49.333 9.334 68 28 18.666 18.667 28 41.334 28 68zm1280 512v192c0 26.667-9.334 49.334-28 68-18.667 18.667-41.334 28-68 28H736c-26.667 0-49.334-9.333-68-28-18.667-18.666-28-41.333-28-68V736c0-26.666 9.333-49.333 28-68 18.666-18.666 41.333-28 68-28h960c26.666 0 49.333 9.334 68 28 18.666 18.667 28 41.334 28 68zm0-512v192c0 26.667-9.334 49.334-28 68-18.667 18.667-41.334 28-68 28H736c-26.667 0-49.334-9.333-68-28-18.667-18.666-28-41.333-28-68V224c0-26.666 9.333-49.333 28-68 18.666-18.666 41.333-28 68-28h960c26.666 0 49.333 9.334 68 28 18.666 18.667 28 41.334 28 68z"/></svg>