<svg xmlns="http://www.w3.org/2000/svg" width="197.183" height="153.091" viewBox="0 0 197.183 153.091"><path fill-rule="evenodd" clip-rule="evenodd" d="M50.35 98.932c-4.93-13.478-4.31-28.23 1.72-41.25 6.04-13.034 16.912-23.053 30.4-28s28.263-4.34 41.298 1.696c13.038 6.04 23.06 16.914 28.01 30.406 6.837 18.63 2.882 39.465-10.18 54.313-6.71 10.14-8.488 21.514 3.128 28.693l13.432 8.3-15.71-1.563c-34.317-3.42-79.854-15.592-92.1-52.595m72.477 35.835c-1.104-9.28 2.373-18.777 7.528-26.48l.38-.57.46-.515c9.857-11.098 12.85-26.764 7.733-40.704-3.698-10.083-11.166-18.187-20.91-22.7-9.74-4.51-20.754-4.965-30.83-1.268-10.08 3.697-18.183 11.164-22.696 20.905-4.513 9.74-4.97 20.76-1.27 30.84l.057.156.05.156c8.048 24.404 36.323 35.423 59.498 40.18"/><path fill-rule="evenodd" clip-rule="evenodd" d="M122.397 23.158c1.944-1.025 3.965-1.93 6.056-2.695 12.25-4.494 25.664-3.943 37.5 1.54 11.84 5.484 20.942 15.36 25.437 27.61 6.208 16.92 2.617 35.84-9.244 49.323-6.094 9.21-7.71 19.535 2.84 26.057l12.197 7.535-14.266-1.42c-11.76-1.172-24.972-3.477-37.458-7.697.53-1.013 1.135-2.026 1.783-3.028 2.077-2.402 3.942-4.94 5.6-7.59 4.145 1.264 8.286 2.28 12.256 3.096-1.003-8.425 2.154-17.05 6.837-24.044l.345-.518.417-.468c8.948-10.078 11.665-24.302 7.02-36.962-3.357-9.154-10.14-16.516-18.987-20.614-7.534-3.49-15.903-4.3-23.874-2.394-3.15-2.272-6.535-4.26-10.122-5.922-1.428-.66-2.877-1.262-4.34-1.808" fill="currentColor"/><path fill-rule="evenodd" clip-rule="evenodd" d="M110.128 19.995C103.56 12.79 95.305 7.2 85.938 3.765 70.624-1.852 53.848-1.162 39.05 5.693c-14.805 6.86-26.184 19.205-31.803 34.526C-.518 61.37 3.973 85.03 18.802 101.886c7.62 11.514 9.64 24.428-3.547 32.58L0 143.89l17.838-1.773c14.976-1.493 31.832-4.458 47.7-9.92-4.52-3.65-8.607-7.76-12.112-12.385-4.508 1.307-8.985 2.387-13.306 3.27 1.256-10.534-2.695-21.32-8.55-30.065l-.432-.648-.52-.585c-11.19-12.602-14.59-30.385-8.784-46.218 4.2-11.443 12.682-20.65 23.743-25.773 11.06-5.123 23.565-5.636 35.008-1.437 2.074.76 4.076 1.665 5.994 2.698 7.725-1.882 15.734-2.23 23.548-1.06"/></svg>