<svg xmlns="http://www.w3.org/2000/svg" width="44" height="40" viewBox="0 0 44 40"><path d="M42 0H8C6.896 0 6 .896 6 2v30c0 .553-.447 1-1 1s-1-.447-1-1V8H2c-1.104 0-2 .896-2 2v24c0 3.312 2.687 6 6 6h36c1.104 0 2-.895 2-2V2c0-1.104-.896-2-2-2zM12 7c0-.552.447-1 1-1h10c.553 0 1 .448 1 1v12c0 .553-.447 1-1 1H13c-.553 0-1-.447-1-1V7zm25 25H13c-.553 0-1-.447-1-1 0-.552.447-1 1-1h24c.553 0 1 .448 1 1 0 .553-.447 1-1 1zm0-6H13c-.553 0-1-.447-1-1 0-.552.447-1 1-1h24c.553 0 1 .448 1 1 0 .553-.447 1-1 1zm0-6h-8c-.553 0-1-.447-1-1 0-.553.447-1 1-1h8c.553 0 1 .447 1 1 0 .553-.447 1-1 1zm0-6h-8c-.553 0-1-.447-1-1 0-.552.447-1 1-1h8c.553 0 1 .448 1 1 0 .553-.447 1-1 1zm0-6h-8c-.553 0-1-.447-1-1 0-.552.447-1 1-1h8c.553 0 1 .448 1 1 0 .553-.447 1-1 1z"/></svg>