<svg xmlns="http://www.w3.org/2000/svg" width="37.99" height="59.996" viewBox="0 0 37.99 59.996"><path d="M14.093 40.375l11.642-2.965c-.7-.697-1.312-2.006-1.312-3.488 0-6.54 13.567-7.5 13.567-19.97C37.99 5.583 30.812 0 19.258 0 12.08 0 4.814 2.79 0 8.197l8.403 9.592c2.45-2.792 5.865-4.536 9.19-4.536 3.765 0 5.166 1.482 5.166 3.4 0 4.36-11.293 5.844-11.293 15.698 0 3.314.963 6.018 2.626 8.023zm5.34 19.62c4.465 0 8.23-3.75 8.23-8.196 0-4.36-3.765-8.11-8.23-8.11-4.464 0-8.228 3.75-8.228 8.11 0 4.446 3.763 8.196 8.228 8.196z"/></svg>