<svg xmlns="http://www.w3.org/2000/svg" width="106.059" height="106.059" viewBox="0 0 106.059 106.059"><path d="M90.546 15.518c-20.688-20.69-54.347-20.69-75.03-.005-20.69 20.685-20.687 54.345 0 75.034C36.2 111.23 69.86 111.23 90.545 90.543c20.686-20.685 20.685-54.343.002-75.025zm-5.79 69.24c-17.493 17.494-45.96 17.496-63.454.002-17.498-17.497-17.496-45.966 0-63.46 17.494-17.493 45.96-17.495 63.457.002 17.493 17.494 17.49 45.963-.003 63.456zM77.017 74c.66 1.522-.04 3.287-1.56 3.944-1.522.66-3.287-.042-3.945-1.562-2.892-6.69-9.73-11.012-17.42-11.012-7.868 0-14.747 4.32-17.522 11.004-.48 1.154-1.596 1.85-2.77 1.85-.385 0-.774-.073-1.15-.23-1.53-.635-2.256-2.39-1.62-3.92C34.737 65.142 43.79 59.37 54.09 59.37c10.084 0 19.084 5.743 22.927 14.63zM33.24 38.67c0-3.423 2.777-6.2 6.2-6.2 3.424 0 6.2 2.776 6.2 6.2 0 3.427-2.776 6.203-6.2 6.203-3.423 0-6.2-2.776-6.2-6.202zm28.117 0c0-3.423 2.78-6.2 6.203-6.2 3.423 0 6.2 2.776 6.2 6.2 0 3.427-2.776 6.203-6.2 6.203s-6.203-2.776-6.203-6.202z"/></svg>