<svg xmlns="http://www.w3.org/2000/svg" width="106.059" height="106.059" viewBox="0 0 106.059 106.059"><path d="M90.546 15.518c-20.688-20.69-54.347-20.69-75.03-.005-20.69 20.685-20.687 54.345 0 75.034C36.2 111.23 69.86 111.23 90.545 90.543c20.686-20.685 20.685-54.343.002-75.025zm-5.79 69.24c-17.493 17.494-45.96 17.496-63.454.002-17.498-17.497-17.496-45.966 0-63.46 17.494-17.493 45.96-17.495 63.457.002 17.493 17.494 17.49 45.963-.003 63.456zM33.24 38.67c0-3.423 2.777-6.2 6.2-6.2 3.424 0 6.2 2.776 6.2 6.2 0 3.427-2.776 6.203-6.2 6.203-3.423 0-6.2-2.776-6.2-6.202zm28.117 0c0-3.423 2.78-6.2 6.203-6.2 3.423 0 6.2 2.776 6.2 6.2 0 3.427-2.776 6.203-6.2 6.203s-6.203-2.776-6.203-6.202zm14.66 25.398c-3.843 8.887-12.843 14.63-22.927 14.63-10.3 0-19.354-5.772-23.064-14.704-.636-1.53.09-3.285 1.62-3.92.376-.156.766-.23 1.15-.23 1.176 0 2.292.695 2.77 1.85 2.778 6.686 9.656 11.004 17.524 11.004 7.69 0 14.528-4.32 17.42-11.01.658-1.522 2.424-2.223 3.944-1.564s2.22 2.424 1.563 3.944z"/></svg>