<svg xmlns="http://www.w3.org/2000/svg" width="106.059" height="106.059" viewBox="0 0 106.059 106.059"><path d="M90.545 90.542c20.686-20.685 20.684-54.342.002-75.024-20.69-20.69-54.35-20.69-75.033-.005-20.687 20.685-20.685 54.345.002 75.034 20.682 20.683 54.34 20.683 75.03-.005zM21.3 21.3c17.494-17.493 45.96-17.495 63.46.002 17.493 17.494 17.49 45.962-.003 63.455-17.494 17.494-45.962 17.496-63.456.002-17.497-17.497-17.495-45.966 0-63.46z"/><path d="M28.65 41.818h13.373c1.738 0 3.147-1.41 3.147-3.146 0-1.738-1.41-3.147-3.147-3.147H28.65c-1.737 0-3.146 1.41-3.146 3.147 0 1.737 1.41 3.146 3.147 3.146zM64.033 41.82h13.372c1.738 0 3.147-1.41 3.147-3.147 0-1.738-1.41-3.147-3.147-3.147H64.033c-1.736 0-3.146 1.41-3.146 3.147 0 1.737 1.41 3.146 3.146 3.146zM30.423 71.03c0 1.92 1.558 3.478 3.48 3.478H72.16c1.923 0 3.48-1.558 3.48-3.48s-1.558-3.477-3.48-3.477H33.9c-1.92.002-3.477 1.558-3.477 3.48z"/></svg>