<svg xmlns="http://www.w3.org/2000/svg" width="456.814" height="438.542" viewBox="0 9.136 456.814 438.542"><path d="M441.11 252.677c10.468-11.99 15.704-26.17 15.704-42.54 0-14.847-5.432-27.692-16.26-38.548-10.85-10.855-23.694-16.278-38.54-16.278h-79.082c.76-2.664 1.52-4.948 2.282-6.852.753-1.902 1.81-4 3.138-6.282 1.328-2.285 2.283-4 2.852-5.14 3.426-6.468 6.047-11.8 7.857-15.984 1.808-4.192 3.606-9.9 5.42-17.134 1.812-7.23 2.712-14.465 2.712-21.697 0-4.566-.055-8.28-.145-11.135-.09-2.854-.574-7.14-1.424-12.85-.86-5.708-2.006-10.467-3.43-14.272-1.43-3.806-3.716-8.092-6.85-12.847-3.144-4.765-6.948-8.614-11.425-11.565-4.477-2.95-10.185-5.425-17.132-7.42-6.954-2-14.8-3-23.562-3-4.948 0-9.228 1.81-12.848 5.427-3.806 3.806-7.047 8.563-9.71 14.27-2.665 5.712-4.52 10.66-5.57 14.85-1.046 4.188-2.237 9.995-3.564 17.416-1.72 7.998-2.998 13.752-3.86 17.272-.854 3.52-2.524 8.136-4.996 13.845-2.478 5.714-5.425 10.278-8.852 13.706-6.28 6.28-15.89 17.702-28.837 34.26-9.33 12.18-18.94 23.695-28.837 34.546-9.9 10.852-17.13 16.466-21.698 16.847-4.755.38-8.848 2.33-12.274 5.854-3.428 3.52-5.14 7.66-5.14 12.42v183.01c0 4.948 1.807 9.18 5.423 12.702 3.616 3.523 7.9 5.38 12.85 5.57 6.66.19 21.696 4.373 45.11 12.565 14.653 4.94 26.12 8.706 34.4 11.272 8.277 2.565 19.848 5.328 34.683 8.282 14.85 2.947 28.552 4.427 41.11 4.427h36.83c25.32-.38 44.062-7.806 56.247-22.27 11.036-13.134 15.697-30.36 13.99-51.678 7.422-7.043 12.565-15.985 15.416-26.837 3.23-11.604 3.23-22.74 0-33.397 8.754-11.61 12.847-24.648 12.27-39.114.03-6.096-1.395-13.327-4.256-21.705zM100.5 191.864H18.276c-4.952 0-9.235 1.81-12.852 5.426C1.81 200.905 0 205.188 0 210.137v182.73c0 4.943 1.81 9.23 5.426 12.848 3.62 3.61 7.902 5.422 12.852 5.422H100.5c4.948 0 9.23-1.81 12.848-5.422 3.615-3.62 5.424-7.903 5.424-12.847v-182.73c0-4.95-1.81-9.232-5.424-12.85-3.618-3.616-7.9-5.424-12.848-5.424zM67.665 369.308c-3.616 3.52-7.897 5.28-12.847 5.28-5.14 0-9.47-1.76-12.99-5.28-3.52-3.52-5.28-7.85-5.28-12.99 0-4.948 1.76-9.232 5.28-12.847 3.52-3.616 7.85-5.428 12.99-5.428 4.95 0 9.23 1.812 12.847 5.43 3.617 3.612 5.426 7.896 5.426 12.846 0 5.14-1.804 9.468-5.425 12.99z"/></svg>