<svg xmlns="http://www.w3.org/2000/svg" width="456.814" height="438.542" viewBox="0 9.136 456.814 438.542"><path d="M15.704 204.137C5.236 216.127 0 230.307 0 246.677c0 14.847 5.432 27.692 16.26 38.548 10.85 10.854 23.694 16.277 38.54 16.277h79.082c-.76 2.664-1.52 4.948-2.282 6.852-.753 1.902-1.81 4-3.138 6.282-1.328 2.285-2.283 4-2.852 5.14-3.426 6.468-6.047 11.8-7.857 15.984-1.807 4.192-3.605 9.9-5.42 17.134-1.81 7.23-2.71 14.465-2.71 21.697 0 4.567.054 8.282.144 11.136.09 2.854.574 7.14 1.424 12.85.862 5.708 2.007 10.467 3.43 14.272 1.43 3.806 3.717 8.092 6.852 12.847 3.143 4.764 6.947 8.613 11.424 11.564 4.477 2.95 10.185 5.424 17.132 7.42 6.954 2 14.8 2.998 23.562 2.998 4.948 0 9.228-1.81 12.848-5.426 3.806-3.806 7.047-8.563 9.71-14.27 2.665-5.712 4.52-10.66 5.57-14.85 1.046-4.188 2.237-9.995 3.564-17.416 1.72-7.998 2.998-13.752 3.86-17.272.854-3.52 2.524-8.136 4.996-13.845 2.478-5.715 5.425-10.28 8.852-13.707 6.28-6.28 15.89-17.7 28.837-34.26 9.33-12.18 18.94-23.694 28.837-34.545 9.9-10.852 17.13-16.466 21.698-16.847 4.755-.38 8.848-2.33 12.274-5.853 3.428-3.52 5.14-7.66 5.14-12.42V63.96c0-4.95-1.807-9.183-5.423-12.704-3.615-3.524-7.898-5.38-12.848-5.57-6.66-.19-21.697-4.374-45.11-12.566-14.654-4.94-26.12-8.706-34.4-11.272-8.278-2.565-19.85-5.328-34.684-8.282-14.85-2.948-28.55-4.428-41.11-4.428h-36.829c-25.32.38-44.06 7.806-56.246 22.27-11.036 13.134-15.697 30.36-13.99 51.678-7.422 7.042-12.565 15.984-15.416 26.836-3.23 11.604-3.23 22.74 0 33.397-8.754 11.61-12.847 24.647-12.27 39.113-.03 6.096 1.395 13.327 4.256 21.704zM356.314 264.95h82.224c4.952 0 9.235-1.808 12.852-5.425 3.615-3.615 5.425-7.898 5.425-12.848V63.947c0-4.943-1.81-9.23-5.426-12.848-3.62-3.612-7.903-5.423-12.853-5.423h-82.223c-4.948 0-9.23 1.81-12.848 5.422-3.615 3.618-5.424 7.902-5.424 12.846v182.73c0 4.95 1.81 9.232 5.424 12.85 3.618 3.617 7.9 5.425 12.848 5.425zM389.15 87.508c3.615-3.52 7.896-5.28 12.846-5.28 5.14 0 9.47 1.76 12.99 5.28 3.52 3.52 5.28 7.85 5.28 12.99 0 4.948-1.76 9.232-5.28 12.847-3.52 3.617-7.85 5.43-12.99 5.43-4.95 0-9.23-1.813-12.847-5.43-3.618-3.613-5.427-7.897-5.427-12.847 0-5.14 1.805-9.468 5.426-12.99z"/></svg>