<svg xmlns="http://www.w3.org/2000/svg" width="198" height="192" viewBox="0 0 198 192"><path d="M198 182.686s0-33.858-24.71-46.167c-15.638-7.79-9.614-1.83-28.814-9.8-19.196-7.96-23.744-10.56-23.744-10.56l-.167-18.25s7.19-5.464 9.433-22.724c4.486 1.3 6.008-5.268 6.25-9.465.266-4.053 2.654-16.69-2.837-15.562 1.123-8.437 2.005-16.065 1.606-20.104C133.642 15.882 123.854 1.08 99.146 0c-21.005 1.08-34.642 15.892-36.02 30.064-.395 4.04.413 11.66 1.536 20.113-5.488-1.143-3.125 11.518-2.883 15.57.265 4.195 1.75 10.783 6.248 9.482 2.233 17.263 9.423 22.767 9.423 22.767l-.178 18.348s-4.548 2.777-23.744 10.734c-19.197 7.972-13.176 1.65-28.815 9.437C0 148.832 0 182.687 0 182.687h.006c-.003.005-.006.015-.006.02C0 187.84 4.155 192 9.28 192h179.436c5.126 0 9.28-4.16 9.28-9.292l-.002-.02H198z"/></svg>